<?xml version="1.0" encoding="utf-8"?>
<!-- Generator: Adobe Illustrator 24.1.2, SVG Export Plug-In . SVG Version: 6.00 Build 0)  -->
<svg version="1.1" id="Mantine-Icon--Streamline-Svg-Logos"
	 xmlns="http://www.w3.org/2000/svg" xmlns:xlink="http://www.w3.org/1999/xlink" x="0px" y="0px" viewBox="0 0 24 24"
	 style="enable-background:new 0 0 24 24;" xml:space="preserve">
<style type="text/css">
	.st0{fill:#F4F2ED;}
	.st1{fill:#339AF0;}
</style>
<path class="st0" d="M5.6,0h12.8C21.5,0,24,2.5,24,5.6v12.8c0,3.1-2.5,5.6-5.6,5.6H5.6C2.5,24,0,21.4,0,18.3V5.6C0,2.5,2.5,0,5.6,0z
	"/>
<path class="st1" d="M22.2,11.7C22.2,6,17.6,1.4,12,1.4C6.4,1.4,1.8,6,1.8,11.7c0,5.6,4.6,10.2,10.2,10.2
	C17.6,21.9,22.2,17.3,22.2,11.7z"/>
<path class="st0" d="M10.9,6.1c0.2,0,0.5,0,0.6,0.2c0.4,0.3,0.7,0.6,1,0.9l0.1,0.1h2.4c0.5,0,0.9,0.4,0.9,0.9c0,0.5-0.4,0.8-0.8,0.9
	l0,0h-1.3c0.4,0.9,0.6,1.8,0.6,2.7c0,0.9-0.2,1.8-0.5,2.6l0,0.1h1.3c0.5,0,0.9,0.4,0.9,0.9c0,0.5-0.4,0.8-0.8,0.9l0,0h-2.4
	c-0.3,0.4-0.7,0.7-1.1,1c-0.2,0.1-0.4,0.2-0.6,0.2c-0.2,0-0.4-0.2-0.6-0.3c-0.1-0.1-0.1-0.2-0.1-0.3c-0.1-0.2,0-0.5,0.1-0.7
	c0.1-0.1,0.1-0.2,0.2-0.2c1.3-1,2.1-2.5,2.1-4.1s-0.8-3.1-2.1-4.1c-0.1-0.1-0.2-0.2-0.2-0.2c-0.2-0.3-0.2-0.6,0-0.9l0,0
	C10.5,6.3,10.7,6.1,10.9,6.1z M10.8,10.3c0.2,0.1,0.3,0.2,0.4,0.3c0.1,0.1,0.2,0.3,0.3,0.4c0.1,0.2,0.1,0.3,0.1,0.5
	c0,0.3-0.1,0.7-0.4,0.9c-0.2,0.2-0.6,0.4-0.9,0.4c-0.3,0-0.7-0.1-0.9-0.4C9.2,12.1,9,11.8,9,11.5c0-0.2,0-0.3,0.1-0.5
	c0.1-0.2,0.2-0.3,0.3-0.4c0.1-0.1,0.3-0.2,0.4-0.3C10.1,10.1,10.5,10.1,10.8,10.3z"/>
</svg>
