<?xml version="1.0" encoding="utf-8"?>
<!-- Generator: Adobe Illustrator 24.1.2, SVG Export Plug-In . SVG Version: 6.00 Build 0)  -->
<svg version="1.1" id="Mantine-Icon--Streamline-Svg-Logos"
	 xmlns="http://www.w3.org/2000/svg" xmlns:xlink="http://www.w3.org/1999/xlink" x="0px" y="0px" viewBox="0 0 24 24"
	 style="enable-background:new 0 0 24 24;" xml:space="preserve">
<style type="text/css">
	.st0{fill:#F4F2ED;}
	.st1{clip-path:url(#SVGID_1_);}
	.st2{fill:#E72264;}
	.st3{opacity:0.15;fill:#1D1D1B;enable-background:new    ;}
	.st4{opacity:5.000000e-02;}
	.st5{opacity:0.5;enable-background:new    ;}
</style>
<path class="st0" d="M5.6,0h12.8C21.5,0,24,2.5,24,5.6v12.8c0,3.1-2.5,5.6-5.6,5.6H5.6C2.5,24,0,21.4,0,18.3V5.6C0,2.5,2.5,0,5.6,0z
	"/>
<g>
	<defs>
		<rect id="SVGID_3_" x="1.7" y="7.9" width="20.6" height="8.1"/>
	</defs>
	<clipPath id="SVGID_1_">
		<use xlink:href="#SVGID_3_"  style="overflow:visible;"/>
	</clipPath>
	<g class="st1">
		<g>
			<path class="st2" d="M10.2,16v-5.6H8.6c0,0,0,0,0,0C8.3,10.5,8,10.7,8,11v0v4.4c0,0,0,0,0,0C8,15.8,8.3,16,8.6,16c0,0,0,0,0,0
				L10.2,16L10.2,16z"/>
			<path class="st2" d="M17.1,16c0.3,0,0.6-0.3,0.6-0.6c0,0,0,0,0,0V11c0,0,0,0,0,0c0-0.3-0.3-0.6-0.6-0.6c0,0,0,0,0,0h-1.7V16
				L17.1,16C17,16,17.1,16,17.1,16L17.1,16z"/>
			<path class="st2" d="M9.9,10.4h1.7c0.2,0,0.4,0.1,0.5,0.3l3.7,4.9C16,15.9,16,16,15.8,16h-1.7c-0.2,0-0.4-0.1-0.5-0.3l-3.7-4.9
				C9.7,10.6,9.8,10.4,9.9,10.4L9.9,10.4z"/>
			<path class="st2" d="M15.7,10.4h-1.7c-0.2,0-0.4,0.1-0.5,0.3l-3.7,4.9C9.6,15.9,9.6,16,9.8,16h1.7c0.2,0,0.4-0.1,0.5-0.3l3.7-4.9
				C15.9,10.6,15.8,10.4,15.7,10.4z"/>
			<path class="st2" d="M16.5,7.9c0.6,0,1.1,0.5,1.1,1.1c0,0.6-0.5,1.1-1.1,1.1c-0.6,0-1.1-0.5-1.1-1.1C15.5,8.4,16,7.9,16.5,7.9z"
				/>
			<path class="st2" d="M9.1,7.9c0.6,0,1.1,0.5,1.1,1.1c0,0.6-0.5,1.1-1.1,1.1S8.1,9.6,8.1,9C8.1,8.4,8.6,7.9,9.1,7.9z"/>
			<path class="st2" d="M21.2,7.9h-1.7c-0.6,0-1.1,0.5-1.1,1.1v1.7c0,0.6,0.5,1.1,1.1,1.1h1.7c0.6,0,1.1-0.5,1.1-1.1V9
				C22.3,8.4,21.8,7.9,21.2,7.9z M20.1,9v1.1c0,0.2,0,0.3-0.1,0.4c-0.1,0.1-0.1,0.2-0.3,0.3c-0.1,0.1-0.2,0.1-0.4,0.1
				c-0.1,0-0.2,0-0.3-0.1c-0.1,0-0.2-0.1-0.2-0.2c0,0-0.2-0.2,0-0.3c0.2-0.1,0.3,0,0.3,0c0,0,0.1,0.1,0.1,0.1c0,0,0.1,0,0.2,0
				c0.1,0,0.1,0,0.1,0s0.1-0.1,0.1-0.1c0,0,0-0.1,0-0.2V9c0,0,0-0.2,0.2-0.2C20.1,8.8,20.1,9,20.1,9L20.1,9z M21.7,10.7
				c-0.1,0.1-0.3,0.2-0.6,0.2c-0.2,0-0.3,0-0.4,0s-0.2-0.1-0.4-0.2c0,0-0.2-0.1,0-0.3c0.1-0.1,0.3,0,0.3,0c0.1,0.1,0.2,0.1,0.2,0.2
				c0.1,0,0.2,0,0.3,0c0.1,0,0.2,0,0.2-0.1c0,0,0.1-0.1,0.1-0.2c0-0.1,0-0.1-0.1-0.1c0,0-0.1-0.1-0.1-0.1c-0.1,0-0.1,0-0.2-0.1
				c-0.1,0-0.1,0-0.2-0.1c-0.1,0-0.1-0.1-0.2-0.1c-0.1,0-0.1-0.1-0.2-0.2s-0.1-0.1-0.1-0.3c0-0.1,0-0.2,0.1-0.3
				C20.5,9,20.6,9,20.7,8.9c0.1-0.1,0.2-0.1,0.4-0.1c0.1,0,0.3,0,0.4,0c0.1,0,0.2,0.1,0.3,0.2c0,0,0.1,0.1,0,0.3
				c-0.1,0.1-0.3,0.1-0.3,0.1c-0.1-0.1-0.1-0.1-0.2-0.1c-0.1,0-0.1,0-0.2,0c-0.1,0-0.1,0-0.2,0.1c0,0-0.1,0.1-0.1,0.1
				c0,0.1,0,0.1,0.1,0.1c0,0,0.1,0.1,0.1,0.1c0.1,0,0.1,0,0.2,0c0.1,0,0.1,0,0.2,0.1c0.1,0,0.1,0.1,0.2,0.1c0.1,0,0.1,0.1,0.2,0.2
				c0,0.1,0.1,0.2,0.1,0.3C21.9,10.4,21.9,10.6,21.7,10.7L21.7,10.7z"/>
			<path class="st2" d="M4.7,7.9c-1.7,0-3,1.3-3,3c0,0,0,0.1,0,0.1v2.9v0v0.3c0,0,0,0,0,0v0.7c0,0,0,0,0,0c0,0,0,0,0,0v0h0
				c0,0.6,0.5,1,1,1s1-0.4,1-1v-1.1h0.9c0,0,0,0,0.1,0c1.7,0,3-1.3,3-3C7.7,9.3,6.4,7.9,4.7,7.9z M4.7,11.8c-0.2,0-0.6,0-0.8,0H3.8
				v-0.9c0-0.5,0.4-0.9,0.9-0.9s0.9,0.4,0.9,0.9C5.6,11.4,5.2,11.9,4.7,11.8L4.7,11.8z"/>
		</g>
		<path class="st3" d="M2.7,13.9h1.1V15h0c0,0.6-0.5,1-1,1s-1-0.4-1-1h0v0c0,0,0,0,0,0s0,0,0,0v-0.1C1.7,14.4,2.2,13.9,2.7,13.9
			L2.7,13.9z"/>
		<g>
			<g class="st4">
				<path class="st5" d="M1.7,12.6v1.3c0-1.1,0.9-2.1,2.1-2.1v-0.4C2.9,11.5,2.2,12,1.7,12.6z"/>
				<path d="M1.7,14.9c0.2-0.2,0.5-0.3,0.9-0.3h1.2v-0.7h-1C2.2,13.9,1.7,14.4,1.7,14.9z"/>
			</g>
			<g class="st4">
				<path class="st5" d="M3.8,11.9v-0.4c-0.8,0.1-1.6,0.5-2.1,1.2v1.2C1.7,12.8,2.7,11.9,3.8,11.9L3.8,11.9z"/>
				<path d="M2.7,13.9c-0.5,0-1,0.4-1,0.9c0.2-0.2,0.5-0.3,0.9-0.3h1.2v-0.6L2.7,13.9L2.7,13.9z"/>
			</g>
			<g class="st4">
				<path class="st5" d="M3.8,11.9v-0.3c-0.9,0.1-1.6,0.5-2.1,1.2v1.2C1.7,12.8,2.7,11.9,3.8,11.9L3.8,11.9z"/>
				<path d="M2.7,13.9c-0.5,0-0.9,0.4-1,0.9c0.2-0.2,0.5-0.3,0.9-0.3h1.2v-0.6L2.7,13.9L2.7,13.9z"/>
			</g>
			<g class="st4">
				<path class="st5" d="M3.8,11.9v-0.3c-0.9,0.1-1.6,0.6-2.1,1.3v1.1C1.7,12.8,2.7,11.9,3.8,11.9z"/>
				<path d="M2.7,13.9c-0.5,0-0.9,0.4-1,0.8c0.2-0.2,0.6-0.3,0.9-0.3h1.2v-0.5H2.7z"/>
			</g>
			<g class="st4">
				<path class="st5" d="M3.8,11.9v-0.3c-0.9,0.1-1.6,0.6-2.1,1.3v1C1.7,12.8,2.7,11.9,3.8,11.9z"/>
				<path d="M2.7,13.9c-0.5,0-0.9,0.3-1,0.8c0.2-0.2,0.6-0.4,0.9-0.4h1.1v-0.4L2.7,13.9L2.7,13.9z"/>
			</g>
			<g class="st4">
				<path class="st5" d="M3.8,11.9v-0.2c-0.9,0.1-1.7,0.6-2.1,1.3v1C1.7,12.8,2.7,11.9,3.8,11.9L3.8,11.9z"/>
				<path d="M2.7,13.9c-0.5,0-0.9,0.3-1,0.7c0.2-0.2,0.6-0.4,0.9-0.4h1.1v-0.4H2.7z"/>
			</g>
			<g class="st4">
				<path class="st5" d="M3.8,11.9v-0.2c-0.9,0.1-1.7,0.6-2.1,1.4v0.9C1.7,12.8,2.7,11.9,3.8,11.9L3.8,11.9z"/>
				<path d="M2.7,13.9c-0.5,0-0.8,0.3-1,0.7c0.2-0.2,0.5-0.4,0.9-0.4h1.1v-0.3L2.7,13.9L2.7,13.9z"/>
			</g>
			<g class="st4">
				<path class="st5" d="M3.8,11.9v-0.1c-0.9,0-1.7,0.6-2.1,1.4v0.8C1.7,12.8,2.7,11.9,3.8,11.9z"/>
				<path d="M2.7,13.9c-0.4,0-0.8,0.3-1,0.7c0.2-0.3,0.5-0.4,0.9-0.4h1.1v-0.2H2.7z"/>
			</g>
			<g class="st4">
				<path class="st5" d="M3.8,11.9v-0.1c-0.9,0-1.7,0.6-2.1,1.5v0.7C1.7,12.8,2.7,11.9,3.8,11.9z"/>
				<path d="M2.7,13.9c-0.4,0-0.8,0.3-1,0.6c0.2-0.3,0.5-0.4,0.9-0.4h1.1v-0.2H2.7z"/>
			</g>
		</g>
	</g>
</g>
</svg>
