<?xml version="1.0" encoding="utf-8"?>
<!-- Generator: Adobe Illustrator 24.1.2, SVG Export Plug-In . SVG Version: 6.00 Build 0)  -->
<svg version="1.1" id="Mantine-Icon--Streamline-Svg-Logos"
	 xmlns="http://www.w3.org/2000/svg" xmlns:xlink="http://www.w3.org/1999/xlink" x="0px" y="0px" viewBox="0 0 24 24"
	 style="enable-background:new 0 0 24 24;" xml:space="preserve">
<style type="text/css">
	.st0{fill:#F4F2ED;}
	.st1{fill:#263238;}
	.st2{fill:#1976D2;}
	.st3{fill:#42A5F5;}
</style>
<path class="st0" d="M5.6,0h12.8C21.5,0,24,2.5,24,5.6v12.8c0,3.1-2.5,5.6-5.6,5.6H5.6C2.5,24,0,21.4,0,18.3V5.6C0,2.5,2.5,0,5.6,0z
	"/>
<path class="st1" d="M13.7,12c0,1-0.8,1.7-1.7,1.7c0,0,0,0,0,0l0,0c-1,0-1.7-0.8-1.7-1.7c0,0,0,0,0,0l0,0c0-1,0.8-1.7,1.7-1.7
	S13.7,11,13.7,12z"/>
<path class="st2" d="M19.7,7.5c-0.4-0.6-0.8-1.2-1.4-1.8l-2,1.2C15.7,6.4,15,6,14.2,5.7C13.6,6.4,13,7.2,12.6,8
	c2.4-0.1,4.8,0.7,6.6,2.3l1.3-0.7C20.3,8.9,20,8.2,19.7,7.5L19.7,7.5z"/>
<path class="st3" d="M19.7,16.4c0.4-0.6,0.7-1.3,0.9-2.1l-2-1.2c0.1-0.8,0.1-1.6,0-2.4c-0.9-0.2-1.9-0.3-2.8-0.2
	c1.3,2.1,1.8,4.5,1.3,6.9l1.3,0.7C18.8,17.6,19.3,17,19.7,16.4z"/>
<path class="st2" d="M12,20.8c0.7,0,1.5-0.1,2.2-0.3v-2.3c0.8-0.3,1.5-0.7,2.1-1.2c-0.2-0.9-0.6-1.8-1.2-2.5c-1.1,2.1-3,3.8-5.3,4.6
	v1.4C10.5,20.7,11.3,20.8,12,20.8z"/>
<path class="st3" d="M4.3,16.4c0.4,0.6,0.8,1.2,1.4,1.8l2-1.2c0.6,0.5,1.3,0.9,2.1,1.2c0.7-0.7,1.2-1.4,1.6-2.3
	C9,16,6.6,15.2,4.7,13.6l-1.3,0.7C3.7,15,4,15.7,4.3,16.4z"/>
<path class="st2" d="M4.3,7.5C4,8.2,3.7,8.9,3.5,9.6l2,1.2c-0.1,0.8-0.1,1.6,0,2.4c0.9,0.2,1.9,0.3,2.8,0.2C7,11.3,6.5,8.9,7,6.5
	L5.7,5.8C5.2,6.3,4.7,6.9,4.3,7.5z"/>
<path class="st3" d="M12,3.1c-0.7,0-1.5,0.1-2.2,0.3v2.3C9,6,8.3,6.4,7.7,6.9c0.2,0.9,0.6,1.8,1.2,2.5c1.1-2.1,3-3.8,5.3-4.6V3.4
	C13.5,3.2,12.7,3.1,12,3.1z"/>
</svg>
