<?xml version="1.0" encoding="utf-8"?>
<!-- Generator: Adobe Illustrator 24.1.2, SVG Export Plug-In . SVG Version: 6.00 Build 0)  -->
<svg version="1.1" id="Mantine-Icon--Streamline-Svg-Logos"
	 xmlns="http://www.w3.org/2000/svg" xmlns:xlink="http://www.w3.org/1999/xlink" x="0px" y="0px" viewBox="0 0 24 24"
	 style="enable-background:new 0 0 24 24;" xml:space="preserve">
<style type="text/css">
	.st0{fill:#F4F2ED;}
	.st1{fill:#D0021B;}
</style>
<path class="st0" d="M5.6,0h12.8C21.5,0,24,2.5,24,5.6v12.8c0,3.1-2.5,5.6-5.6,5.6H5.6C2.5,24,0,21.4,0,18.3V5.6C0,2.5,2.5,0,5.6,0z
	"/>
<g>
	<path d="M8.3,13.2c0.9,0,1.7-0.8,1.7-1.7c0-0.9-0.8-1.7-1.7-1.7s-1.7,0.8-1.7,1.7C6.6,12.4,7.4,13.2,8.3,13.2z M4.3,16.6
		c0.9,0,1.7-0.8,1.7-1.7c0-0.9-0.8-1.7-1.7-1.7s-1.7,0.8-1.7,1.7C2.6,15.8,3.4,16.6,4.3,16.6z M19.7,16.6c0.9,0,1.7-0.8,1.7-1.7
		c0-0.9-0.8-1.7-1.7-1.7c-0.9,0-1.7,0.8-1.7,1.7C18,15.8,18.8,16.6,19.7,16.6z"/>
	<path class="st1" d="M14.1,11.5c-0.1-0.6-0.1-1-0.5-1.4C13,9.7,12.4,10,11.6,9.7c-0.8-0.2-1.3-0.9-1.3-1.7c0-0.9,0.8-1.7,1.7-1.7
		c0.7,0,1.3,0.4,1.6,1c0.4,0.8,0.1,1.6,0.7,2c0.6,0.5,1.4,0.1,2.4,0.6c0.3,0.1,0.5,0.4,0.7,0.6c0.2,0.3,0.3,0.6,0.3,0.9
		c0,0.8-0.6,1.5-1.3,1.7c-0.8,0.3-1.4,0-1.9,0.4c-0.6,0.5-0.3,1.3-0.8,2.1c-0.3,0.6-0.9,0.9-1.5,0.9c-1,0-1.7-0.8-1.7-1.7
		c0-0.7,0.4-1.3,1-1.5c0.9-0.4,1.7-0.1,2.4-0.6C14,12.5,14.1,12.1,14.1,11.5z"/>
</g>
</svg>
